<?xml version="1.0" encoding="UTF-8" standalone="no"?>
<!-- Created with Inkscape (http://www.inkscape.org/) -->

<svg
   width="1024"
   height="1024"
   viewBox="0 0 270.93333 270.93334"
   version="1.1"
   id="svg5"
   inkscape:export-filename="/home/teaguy21/Downloads/bitmap.png"
   inkscape:export-xdpi="96"
   inkscape:export-ydpi="96"
   inkscape:version="1.1.2 (0a00cf5339, 2022-02-04)"
   sodipodi:docname="drawing2.svg"
   xmlns:inkscape="http://www.inkscape.org/namespaces/inkscape"
   xmlns:sodipodi="http://sodipodi.sourceforge.net/DTD/sodipodi-0.dtd"
   xmlns="http://www.w3.org/2000/svg"
   xmlns:svg="http://www.w3.org/2000/svg">
  <sodipodi:namedview
     id="namedview7"
     pagecolor="#ffffff"
     bordercolor="#cccccc"
     borderopacity="1"
     inkscape:pageshadow="0"
     inkscape:pageopacity="1"
     inkscape:pagecheckerboard="0"
     inkscape:document-units="mm"
     showgrid="false"
     units="px"
     width="1024px"
     inkscape:zoom="0.38573934"
     inkscape:cx="584.59166"
     inkscape:cy="644.21742"
     inkscape:window-width="1440"
     inkscape:window-height="833"
     inkscape:window-x="13"
     inkscape:window-y="11"
     inkscape:window-maximized="0"
     inkscape:current-layer="layer1" />
  <defs
     id="defs2" />
  <g
     inkscape:label="Layer 1"
     inkscape:groupmode="layer"
     id="layer1">
    <path
       style="fill:#e6e6e6;stroke-width:0.857983"
       d="m 189.94745,264.31711 3.20433,-6.48062 0.26492,-29.83424 c 0.21241,-23.92057 0.003,-31.35333 -1.05756,-37.49811 -2.85012,-16.5155 -10.3696,-31.35856 -21.89866,-43.22686 l -5.94634,-6.12129 c -10.03377,-2.06373 -30.87816,9.49501 -33.99534,13.37979 -5.76245,6.05205 -10.30275,13.2078 -13.55876,21.36916 -4.52656,11.34608 -4.26851,11.46664 5.07813,2.37218 16.02897,-24.03725 50.54066,-5.05352 45.39597,18.61202 -1.41683,4.88645 -2.24429,5.86099 -21.33964,25.13278 -16.34449,16.49556 -20.76105,20.47926 -24.91745,22.47517 -6.13543,2.9463 -12.90214,3.92163 -18.10984,2.61032 l -3.841139,-0.96723 c -2.805611,55.28125 54.066789,87.93341 90.721379,18.17693 z M 67.635097,246.51842 85.7242,237.41117 62.517462,214.11503 C 49.753763,201.30216 38.600781,189.46758 37.733068,187.81595 c -1.173195,-2.23311 -2.935616,-4.99205 -2.933479,-10.41536 0.0035,-8.73793 2.998906,-12.38117 9.152319,-17.79762 6.562046,-5.77612 14.590953,-7.38717 23.552485,-4.72589 4.192384,1.24504 6.004262,2.72047 18.457401,15.0303 l 13.808644,13.6498 1.407332,-5.06184 c 3.26276,-11.73546 11.76207,-26.45461 19.86411,-34.40076 3.71851,-3.64695 3.89795,-4.04647 3.85397,-8.57983 l -0.046,-4.75478 -5.23926,-2.5656 c -9.76882,-4.78368 -17.9946,-14.97381 -20.808711,-25.7779 -1.866162,-7.164728 -1.875295,-42.45449 -0.01328,-49.767378 4.341096,-17.045321 18.082426,-30.786662 35.127796,-35.127766 25.44638,-6.480661 51.93543,9.601581 58.44265,35.482181 1.13016,4.494905 1.31128,9.152082 1.01768,26.168535 -0.39416,22.844098 -1.05446,26.280768 -6.59724,34.336908 -2.79563,4.06329 -8.69775,9.55899 -11.8601,11.0434 -3.49591,1.64097 -2.50141,4.8412 3.2705,10.52439 14.58611,14.36198 24.42749,32.92811 27.84632,52.53313 1.86191,10.677 1.83091,66.30812 -0.0412,73.59804 C 295.39786,342.674 55.194677,372.85704 50.625162,317.10487 49.440265,302.64801 19.108402,271.07802 67.635097,246.51842 Z m 47.980583,-14.4231 c 1.67503,-0.79487 10.98719,-9.44466 20.69365,-19.22178 14.82239,-14.93031 17.74347,-18.28487 18.24364,-20.95078 0.83663,-4.45973 -1.60936,-9.20721 -5.79831,-11.25412 -5.71351,-2.79186 -7.29606,-1.85167 -23.03462,13.68495 -12.77479,12.61086 -14.53577,14.05399 -17.14932,14.05399 -2.6068,0 -4.02602,-1.549 -15.58056,-12.64683 0,0 -24.10821,-34.6915 -36.484167,-30.01163 -9.432352,3.56677 -9.643094,10.3223 -8.731725,13.57703 3.350858,11.96673 24.363688,25.22247 34.611678,35.24456 9.320912,9.11541 18.365574,17.26023 20.099244,18.09959 3.67851,1.78096 8.62186,1.56451 13.13049,-0.57498 z m 62.45886,-131.55788 c 0.6031,-1.781388 1.29692,-9.126788 1.54185,-16.323138 l 0.44527,-13.084272 h -34.4237 -34.42373 v 11.856062 c 0,13.30817 1.01025,18.092408 5.13558,24.320488 3.11749,4.70657 7.23318,7.69735 14.52502,10.55498 19.02333,12.07111 40.17203,2.05127 47.19971,-17.32412 z m 0.9205,-44.306887 c 0,-0.644433 -1.35525,-3.880662 -3.01167,-7.1916 -3.65989,-7.315744 -8.80909,-12.272287 -16.56789,-15.948118 -5.18971,-2.458635 -6.50505,-2.715077 -13.92634,-2.715077 -7.74702,0 -8.55301,0.176734 -14.73299,3.231048 -9.2117,4.552694 -16.06576,12.6227 -18.30786,21.555803 l -0.5621,2.239657 h 33.55441 c 27.78696,0 33.55444,-0.201377 33.55444,-1.171713 z"
       id="path896"
       sodipodi:nodetypes="ccscsccsccsssccccsssssscssccsscssssssscscssssssssscsscscccssccsssssscss" />
  </g>
</svg>
